<?xml version="1.0" standalone="no"?>
<!DOCTYPE svg PUBLIC "-//W3C//DTD SVG 20010904//EN"
 "http://www.w3.org/TR/2001/REC-SVG-20010904/DTD/svg10.dtd">
<svg version="1.0" xmlns="http://www.w3.org/2000/svg"
 width="850.000000pt" height="850.000000pt" viewBox="0 0 850.000000 850.000000"
 preserveAspectRatio="xMidYMid meet">
<metadata>
Created by potrace 1.11, written by Peter Selinger 2001-2013
</metadata>
<g transform="translate(0.000000,850.000000) scale(0.100000,-0.100000)"
fill="#000000" stroke="none">
<path d="M4217 6954 c-1 -1 -67 -4 -147 -7 -80 -3 -146 -6 -148 -6 -2 -1 0 -7
4 -13 6 -10 4 -10 -8 0 -9 7 -30 10 -49 8 -19 -3 -60 -8 -93 -11 -57 -7 -86
-11 -136 -21 -14 -3 -41 -8 -60 -11 -19 -3 -41 -10 -48 -16 -7 -5 -15 -7 -18
-4 -3 2 -29 -2 -57 -9 -29 -8 -59 -16 -67 -18 -8 -2 -33 -9 -55 -15 -22 -6
-44 -11 -50 -12 -20 -4 -232 -78 -309 -108 -101 -40 -293 -138 -376 -193 -324
-212 -556 -518 -616 -813 -2 -11 -7 -33 -10 -50 -4 -16 -6 -37 -6 -45 0 -15
-88 -80 -108 -80 -5 0 -10 -4 -10 -8 0 -4 -15 -16 -32 -27 -18 -10 -53 -34
-78 -53 -313 -234 -554 -510 -699 -799 -60 -120 -68 -140 -109 -265 -22 -65
-42 -115 -44 -112 -3 2 -4 -8 -2 -23 1 -15 -1 -32 -6 -38 -8 -10 -10 -16 -10
-36 0 -5 -5 -7 -11 -4 -6 4 -5 -2 2 -13 9 -15 10 -24 2 -34 -6 -7 -9 -21 -7
-32 2 -14 -2 -17 -20 -14 -27 5 -31 -17 -8 -47 11 -16 13 -16 9 -2 -4 9 -2 17
3 17 16 0 12 -22 -8 -43 -16 -19 -16 -20 1 -14 11 4 16 3 12 -4 -4 -6 -13 -8
-20 -5 -8 3 -16 0 -18 -7 -3 -8 -10 -5 -21 8 -15 19 -16 19 -9 1 5 -15 3 -17
-8 -11 -8 5 -11 5 -6 -1 5 -5 21 -10 35 -10 45 -3 48 -4 32 -13 -8 -6 -18 -7
-22 -5 -4 3 -16 0 -25 -6 -16 -10 -16 -10 2 -6 11 3 27 1 35 -4 13 -9 13 -10
0 -11 -8 -1 -19 -1 -24 0 -4 1 -6 -14 -4 -33 3 -30 2 -33 -11 -23 -12 9 -12 6
2 -15 10 -17 13 -29 7 -33 -6 -4 -7 -11 -4 -17 4 -7 2 -8 -4 -4 -7 4 -12 2
-12 -4 0 -6 -5 -8 -11 -4 -8 4 -7 9 2 15 8 5 10 9 5 9 -5 0 -3 6 3 14 8 10 9
16 1 21 -5 3 -11 4 -11 1 -1 -3 -3 -10 -4 -16 -1 -5 -3 -15 -4 -21 0 -5 -7 -7
-13 -3 -10 6 -10 4 0 -8 10 -13 10 -17 0 -22 -7 -3 3 -3 22 0 19 2 30 1 25 -3
-6 -5 -10 -17 -9 -29 1 -12 -5 -21 -13 -21 -9 0 -10 4 -3 11 12 12 13 26 3 26
-15 0 -34 -53 -23 -64 5 -5 10 -14 10 -20 0 -6 -5 -5 -12 2 -7 7 -17 12 -22
12 -6 0 -3 -5 7 -11 9 -5 17 -15 17 -21 0 -9 -3 -9 -12 0 -7 7 -17 12 -22 12
-6 0 0 -7 12 -16 22 -15 22 -17 7 -41 -18 -27 -12 -45 8 -23 10 10 9 11 -2 5
-10 -5 -12 -4 -7 4 4 6 11 9 16 6 5 -3 11 -1 15 5 3 5 1 10 -5 10 -6 0 -8 5
-5 10 3 6 10 10 15 10 11 0 6 -28 -8 -42 -19 -19 -14 -32 6 -17 16 13 16 13 2
-5 -16 -21 -21 -67 -7 -77 4 -3 -6 -6 -22 -6 -24 0 -28 3 -20 14 6 7 16 10 23
6 7 -4 7 -1 -1 7 -9 9 -9 19 -2 34 10 20 10 20 -5 2 -9 -10 -13 -24 -9 -29 4
-6 0 -8 -9 -5 -22 9 -16 -32 7 -44 13 -8 16 -7 11 1 -5 7 -1 8 11 4 14 -6 13
-9 -12 -19 -20 -9 -24 -13 -12 -14 10 0 16 -4 12 -10 -3 -5 -13 -7 -23 -4 -14
5 -14 3 2 -10 23 -19 36 -13 31 14 -2 11 0 20 6 20 10 0 8 -28 -4 -47 -4 -6
-3 -14 2 -17 5 -4 12 0 14 6 4 10 6 10 6 0 1 -8 6 -10 14 -6 7 4 9 3 4 -2 -5
-5 -14 -9 -20 -9 -7 0 -11 -8 -9 -17 2 -12 -3 -15 -20 -11 -17 3 -19 2 -9 -5
11 -8 10 -11 -5 -15 -17 -4 -17 -5 -1 -6 11 -1 15 -6 11 -13 -4 -7 -3 -8 4 -4
7 4 12 2 12 -4 0 -6 4 -8 10 -5 6 4 7 -1 3 -12 -6 -15 -4 -16 9 -5 11 9 18 10
23 2 4 -6 2 -9 -4 -8 -5 2 -17 -6 -25 -17 l-16 -20 6 20 c7 20 7 20 -9 0 -14
-18 -13 -22 3 -45 17 -25 17 -55 -2 -44 -5 3 -4 -3 4 -15 13 -22 28 -28 28
-12 0 5 -6 12 -12 14 -7 3 -8 6 -3 6 6 1 22 -15 38 -34 15 -19 21 -32 13 -29
-8 3 -17 1 -20 -5 -4 -6 -13 -8 -21 -4 -18 6 -20 -8 -3 -25 9 -9 9 -12 0 -12
-7 0 -12 -5 -12 -11 0 -5 5 -7 12 -3 7 5 9 1 6 -13 -3 -11 3 -30 13 -44 11
-13 17 -17 14 -9 -4 11 1 16 15 17 11 1 20 -3 20 -8 0 -6 -5 -7 -10 -4 -6 3
-10 -1 -10 -9 0 -9 0 -19 -1 -23 0 -4 5 -9 13 -11 10 -3 10 -2 -1 6 -9 7 -10
12 -2 16 10 7 16 -7 12 -28 -1 -5 7 -6 19 -3 11 3 17 1 14 -4 -6 -10 -42 -8
-59 3 -6 4 -17 2 -25 -4 -12 -8 -12 -9 2 -4 10 3 20 1 23 -5 4 -5 10 -7 14 -4
5 2 9 -6 9 -20 0 -14 -4 -22 -9 -19 -5 3 -6 -2 -3 -11 8 -19 17 -12 19 13 0 9
5 18 10 19 6 1 9 -6 7 -16 -3 -19 23 -36 39 -25 5 3 9 3 9 0 0 -3 -10 -10 -21
-17 -12 -6 -19 -7 -15 -1 3 5 -1 13 -9 16 -12 4 -13 2 -7 -12 5 -9 7 -22 5
-28 -2 -6 4 -15 14 -18 10 -4 19 -2 21 3 2 6 8 11 14 11 7 0 6 -5 -1 -14 -9
-11 -9 -15 1 -18 8 -3 6 -7 -6 -11 -10 -4 -15 -3 -11 3 3 6 1 10 -5 10 -7 0
-9 -7 -6 -16 4 -11 2 -15 -8 -11 -15 6 -16 -17 -1 -30 4 -4 5 -3 2 3 -8 14 20
27 28 14 4 -6 0 -10 -7 -10 -9 0 -9 -3 2 -10 8 -5 11 -10 5 -10 -5 0 1 -7 13
-16 13 -9 21 -22 18 -30 -3 -8 -2 -13 2 -12 13 2 42 -14 42 -24 0 -5 -6 -6
-12 -2 -9 6 -9 3 0 -9 8 -9 11 -20 9 -24 -3 -5 6 -10 19 -11 15 -1 23 2 19 8
-4 6 -12 7 -18 3 -7 -4 -5 2 3 12 14 17 13 18 -2 12 -12 -4 -15 -2 -11 9 4 11
9 12 19 3 7 -6 12 -16 11 -22 -1 -7 5 -11 13 -9 9 1 6 -6 -9 -18 -13 -11 -18
-20 -11 -20 10 0 9 -4 -1 -18 -11 -14 -11 -15 1 -4 22 19 35 14 16 -7 -20 -22
-12 -30 27 -26 15 2 25 -1 21 -6 -3 -5 -9 -7 -13 -5 -4 3 -13 1 -21 -4 -11 -7
-8 -9 10 -8 14 1 31 6 39 12 11 8 13 8 8 -1 -4 -6 -3 -14 1 -17 5 -3 7 -17 4
-32 -3 -20 -7 -23 -14 -12 -8 10 -8 9 -4 -4 3 -10 0 -18 -6 -18 -6 0 -8 -3 -5
-6 4 -4 13 -2 20 5 11 8 18 6 32 -9 10 -11 13 -20 7 -20 -7 0 -12 -5 -12 -11
0 -5 5 -7 10 -4 6 3 10 -2 10 -13 0 -23 46 -47 56 -29 4 7 4 9 -1 5 -14 -13
-47 13 -42 33 3 10 1 17 -3 14 -12 -7 -6 23 7 36 8 8 13 7 18 -2 5 -7 4 -10
-3 -5 -6 3 -13 2 -17 -3 -3 -5 3 -14 12 -20 10 -6 13 -11 6 -11 -18 0 -5 -27
16 -33 15 -3 18 -12 15 -39 -4 -32 -1 -37 26 -48 34 -14 65 -7 54 12 -4 7 -3
9 1 5 12 -10 15 -38 4 -31 -5 3 -9 -2 -9 -11 0 -9 5 -13 11 -9 7 4 10 1 7 -7
-3 -8 -12 -13 -22 -11 -17 3 -22 -23 -6 -33 6 -4 7 1 3 11 -4 11 -2 15 4 11 6
-4 16 0 23 8 6 7 18 11 25 9 11 -5 12 -9 2 -19 -7 -7 -16 -11 -20 -8 -5 3 -3
-4 4 -15 7 -12 17 -18 22 -15 5 3 4 9 -3 13 -9 5 -9 9 -1 14 6 4 11 2 11 -3 0
-6 3 -10 8 -10 20 3 28 -3 30 -26 1 -14 -3 -25 -9 -25 -6 0 -9 6 -6 13 10 25
-8 38 -22 16 -7 -12 -8 -18 -3 -15 6 3 13 -1 16 -10 3 -9 12 -14 20 -11 7 3
21 -4 30 -14 9 -11 21 -17 26 -14 6 3 10 -1 10 -10 0 -11 5 -15 14 -12 16 6
33 -27 30 -60 -1 -12 2 -20 6 -18 4 2 6 15 5 28 -2 14 2 24 11 24 7 0 11 -3 9
-7 -6 -10 32 -39 41 -32 4 4 4 1 0 -6 -6 -11 -12 -10 -29 5 -11 10 -17 13 -14
6 4 -6 3 -14 -3 -18 -5 -3 -10 -14 -9 -23 0 -12 3 -11 9 6 8 19 12 21 29 10
11 -7 22 -21 25 -33 5 -17 8 -18 16 -5 5 8 10 20 10 25 0 6 -5 3 -10 -5 -6
-10 -10 -11 -10 -2 0 19 4 26 17 28 8 1 11 -13 9 -44 -2 -26 -1 -39 1 -30 5
21 24 23 41 6 10 -10 15 -10 21 1 6 9 11 10 15 2 4 -6 1 -11 -6 -11 -7 0 -4
-6 7 -12 11 -6 30 -20 43 -32 13 -11 27 -20 30 -18 4 1 7 -4 7 -10 0 -7 8 -12
18 -10 20 3 20 2 7 -32 -5 -14 -6 -25 -2 -24 4 1 21 -5 37 -14 36 -19 66 -19
81 1 9 11 12 12 19 1 5 -9 4 -11 -3 -6 -15 9 -15 -7 0 -22 8 -8 8 -15 -2 -27
-12 -14 -7 -20 14 -16 5 1 12 -2 15 -8 3 -5 13 -11 21 -13 8 -2 20 -10 27 -18
7 -8 13 -10 13 -4 0 12 -30 42 -45 44 -5 1 -17 6 -25 11 -11 6 -11 8 -2 9 7 0
10 5 7 10 -12 19 7 10 26 -13 10 -12 18 -16 19 -9 0 6 5 12 11 12 5 0 8 -4 4
-9 -3 -5 -1 -12 5 -16 6 -4 8 -11 5 -16 -4 -5 -1 -9 4 -9 6 0 11 8 11 18 0 12
4 11 13 -8 8 -14 19 -24 26 -22 7 1 10 -2 6 -8 -10 -16 7 -12 19 5 9 13 11 9
12 -20 0 -19 -3 -35 -8 -35 -4 0 -8 7 -8 15 0 8 -5 15 -10 15 -7 0 -6 -8 2
-23 7 -12 12 -25 13 -29 0 -3 4 -10 8 -15 5 -4 8 -3 7 2 -5 23 1 35 23 46 19
10 20 10 10 -2 -10 -12 -6 -14 23 -13 19 1 31 -2 28 -8 -3 -5 2 -8 12 -6 11 2
20 -4 22 -16 3 -11 0 -16 -7 -11 -6 3 -8 11 -5 17 4 6 -2 5 -15 -1 -16 -9 -21
-9 -19 0 2 7 -5 14 -15 15 -10 1 -12 0 -3 -3 9 -2 12 -11 9 -20 -5 -12 -1 -14
18 -8 20 6 22 5 12 -6 -7 -7 -13 -17 -13 -23 0 -5 6 -1 14 10 14 18 15 18 24
-5 8 -21 9 -22 15 -6 6 14 10 15 22 5 8 -7 12 -17 8 -23 -3 -5 -1 -7 5 -3 5 3
13 0 15 -6 4 -10 6 -10 6 -1 1 7 7 10 15 7 9 -3 12 -13 9 -22 -5 -14 -3 -14 9
1 13 17 15 17 27 3 7 -9 17 -14 21 -11 5 3 15 -4 23 -16 8 -11 18 -16 21 -11
3 6 0 13 -6 15 -10 4 -10 6 0 6 8 1 10 6 6 14 -6 9 -5 9 7 0 10 -8 19 -9 27
-3 7 6 10 7 7 3 -6 -8 24 -43 38 -43 5 0 3 8 -4 17 -12 16 -12 17 2 6 9 -7 20
-9 24 -5 5 4 5 1 1 -5 -7 -13 2 -16 34 -14 10 0 11 -1 3 -5 -9 -4 -10 -11 -3
-24 8 -15 6 -21 -9 -29 -10 -6 -21 -8 -25 -6 -3 3 -3 2 0 -2 3 -5 9 -8 12 -8
4 0 13 -4 19 -8 9 -5 11 -3 7 6 -8 22 17 33 28 13 5 -9 14 -16 19 -16 6 0 3 7
-5 16 -20 19 -20 20 -2 27 11 4 13 1 9 -11 -6 -14 -4 -15 9 -4 13 10 17 10 22
-4 5 -13 9 -14 20 -5 11 9 18 5 35 -23 23 -36 69 -60 51 -26 -9 17 -4 30 12
30 5 0 8 -8 6 -17 -2 -10 2 -18 9 -18 6 0 21 -10 33 -22 25 -28 26 -28 26 -4
0 10 -5 18 -11 17 -5 -2 -7 -1 -2 1 4 3 5 8 3 12 -3 4 1 8 9 8 8 0 12 -4 9 -9
-8 -13 21 -9 34 4 9 9 12 9 12 0 0 -7 -5 -12 -11 -12 -5 0 -8 -4 -5 -9 3 -5
20 -7 38 -5 24 3 29 1 18 -6 -8 -5 -11 -10 -6 -10 5 0 2 -8 -5 -17 -12 -14
-12 -16 0 -8 11 6 13 4 9 -7 -4 -8 0 -15 7 -15 10 0 11 5 4 18 -12 23 4 33 31
19 12 -6 20 -7 20 -1 0 5 -6 12 -12 14 -8 4 -9 6 -2 6 6 1 17 -5 24 -13 6 -8
18 -12 26 -9 8 3 14 1 14 -4 0 -11 -60 -11 -77 0 -20 12 -15 -4 5 -19 20 -16
36 -18 27 -5 -3 6 4 9 15 8 21 -1 29 -17 8 -17 -6 0 -8 -3 -5 -7 4 -3 1 -13
-6 -22 -11 -14 -10 -14 5 -3 10 8 20 22 23 32 4 13 12 17 23 13 15 -6 16 -5 2
13 -14 18 -14 18 3 5 14 -11 17 -11 17 0 1 8 7 3 15 -11 8 -14 14 -19 15 -11
0 11 4 10 14 -4 12 -17 12 -21 -3 -32 -9 -7 -11 -13 -5 -13 5 0 15 5 22 12 9
9 12 9 12 -2 0 -7 3 -11 6 -8 3 4 0 17 -7 30 -11 20 -10 21 3 11 8 -7 19 -9
23 -5 5 4 5 2 1 -5 -4 -8 1 -11 14 -10 11 1 20 4 20 7 0 4 7 7 15 7 8 0 12 -3
10 -7 -2 -3 0 -12 5 -20 7 -11 3 -20 -12 -31 -16 -12 -18 -18 -8 -24 9 -6 11
-4 5 5 -6 10 -4 12 8 7 10 -4 16 -2 14 5 -1 6 4 13 12 16 8 3 11 0 7 -7 -5 -7
-1 -9 8 -5 9 3 16 10 16 16 0 5 -5 6 -12 2 -7 -4 -8 -3 -4 4 5 8 2 10 -8 6
-18 -7 -23 21 -6 31 5 3 7 0 4 -9 -4 -11 0 -14 15 -11 12 2 19 0 16 -6 -4 -5
1 -9 10 -9 10 0 13 5 9 12 -5 7 -3 8 5 3 9 -5 6 -14 -11 -33 -13 -14 -18 -22
-11 -19 6 4 13 4 16 0 2 -5 3 -3 2 2 -2 6 7 17 19 26 20 16 22 16 22 -1 0 -10
-4 -17 -7 -14 -4 2 -10 0 -14 -5 -3 -6 4 -8 16 -6 14 3 19 0 16 -8 -3 -7 3
-13 14 -13 13 0 15 4 8 12 -6 8 -7 14 0 18 5 4 12 -3 16 -14 4 -11 10 -18 15
-15 4 3 11 -7 14 -21 4 -15 9 -24 12 -22 2 3 0 17 -5 30 -8 21 -6 30 11 48
l21 22 18 -23 c10 -13 19 -21 20 -16 1 4 2 11 3 16 0 5 4 12 8 16 14 14 1 -27
-14 -45 -14 -16 -15 -19 -2 -24 8 -3 13 -2 10 3 -3 5 1 14 10 21 12 10 17 11
27 1 9 -10 9 -12 -2 -9 -7 2 -15 -5 -16 -15 -3 -17 -2 -17 14 -3 10 9 21 13
26 9 4 -5 3 2 -4 14 -14 27 -14 44 0 20 6 -9 15 -14 21 -11 8 5 9 1 4 -11 -5
-13 -3 -15 6 -8 7 5 20 9 28 8 8 0 18 4 22 10 5 7 8 6 8 -2 0 -6 13 -10 28 -9
16 1 29 -3 29 -10 0 -14 -29 -13 -40 1 -5 6 -7 3 -4 -7 3 -9 -1 -19 -9 -22 -8
-3 -14 -10 -14 -16 0 -6 7 -4 16 4 8 9 20 13 26 10 7 -4 8 -2 4 4 -4 7 -3 12
2 12 5 0 14 -10 21 -23 11 -22 11 -22 5 3 l-7 25 22 -20 c13 -11 22 -15 21
-10 -5 25 2 28 16 5 8 -14 13 -17 10 -8 -3 12 -1 15 9 12 8 -3 13 -11 11 -17
-1 -7 -1 -9 1 -4 3 4 9 4 15 1 5 -3 4 3 -3 14 -7 12 -15 20 -18 20 -19 -2 -28
4 -28 18 0 14 2 14 11 3 13 -17 25 -18 46 -4 12 7 13 6 4 -6 -9 -11 -5 -20 19
-44 27 -27 29 -27 16 -5 -7 14 -12 29 -11 33 1 5 -2 6 -8 2 -6 -4 -7 1 -3 11
5 13 10 10 24 -17 12 -21 18 -27 16 -14 -1 11 -6 26 -10 33 -5 6 -4 12 1 12 6
0 13 -7 16 -15 5 -14 9 -14 33 1 26 15 26 15 8 0 -20 -17 -20 -17 2 -22 12 -3
19 -12 17 -19 -3 -7 2 -15 12 -19 14 -5 15 -4 4 9 -7 8 -9 15 -5 15 4 0 2 6
-4 13 -8 10 -7 14 4 14 8 0 12 -4 9 -9 -3 -4 5 -6 18 -4 13 3 25 5 28 5 3 1
-2 6 -10 11 -9 6 -10 10 -3 10 6 0 15 -5 18 -10 4 -6 16 -8 27 -4 18 5 19 4 7
-9 -8 -8 -22 -13 -32 -11 -11 2 -15 -1 -10 -9 4 -8 2 -8 -9 1 -11 9 -18 10
-23 2 -3 -5 -5 -10 -3 -11 32 -8 48 -7 48 3 0 6 8 4 19 -6 18 -17 20 -16 26 3
3 12 11 21 16 21 6 0 7 5 4 10 -3 6 -1 10 4 10 14 0 14 -13 -1 -28 -9 -9 -9
-12 1 -12 7 0 9 -5 5 -12 -6 -10 -4 -10 7 -2 21 17 85 12 109 -9 23 -20 37
-23 23 -4 -14 18 -24 49 -14 42 5 -3 11 -2 14 2 2 5 2 2 1 -5 -4 -16 23 -16
28 0 3 7 7 5 11 -6 4 -9 3 -15 -1 -12 -4 2 -14 0 -22 -6 -12 -8 -11 -9 4 -4
13 5 17 2 12 -9 -3 -8 -1 -15 4 -15 6 0 10 7 10 15 0 18 16 20 23 3 4 -10 6
-10 6 0 1 7 -6 15 -14 18 -8 4 -15 11 -15 16 0 6 6 5 15 -2 16 -14 38 -4 29
13 -3 7 2 3 10 -7 11 -13 16 -15 16 -6 0 7 3 11 6 8 3 -4 1 -15 -5 -27 -8 -15
-8 -22 1 -27 7 -4 10 -4 6 1 -12 13 12 35 38 35 13 0 24 5 24 12 0 6 6 3 14
-7 14 -20 12 -35 -4 -35 -5 0 -8 6 -6 13 1 6 1 9 -1 4 -3 -4 -9 -5 -13 -2 -5
3 -12 0 -16 -7 -4 -7 -4 -10 1 -6 4 4 14 3 22 -3 9 -8 17 -8 26 0 8 6 18 7 22
3 5 -4 1 5 -8 21 -12 19 -14 26 -5 25 7 -2 12 4 10 12 -2 8 0 11 5 7 4 -5 8
-12 8 -15 0 -4 4 -13 9 -21 7 -10 6 -12 -4 -6 -9 6 -11 4 -6 -4 5 -7 10 -10
13 -7 2 2 13 -4 24 -15 10 -10 25 -19 32 -19 6 1 2 6 -11 13 -12 7 -20 16 -16
20 4 3 15 2 25 -4 11 -5 19 -6 19 -2 0 4 5 2 12 -5 9 -9 17 -7 34 9 14 13 24
17 29 10 3 -6 1 -11 -4 -11 -6 0 -11 -8 -10 -17 0 -12 2 -13 6 -5 4 10 8 10
21 0 10 -7 14 -8 9 -3 -4 4 0 16 8 25 14 16 14 17 -6 16 -12 0 -24 6 -26 14
-3 9 -1 11 4 5 4 -6 17 -11 28 -10 13 0 20 -7 20 -19 0 -11 8 -20 17 -22 15
-2 15 1 -2 32 -15 25 -16 32 -5 27 8 -3 15 -9 15 -14 0 -5 9 -9 21 -9 11 0 17
-5 14 -10 -4 -6 -11 -7 -17 -4 -7 5 -8 2 -3 -5 5 -9 11 -9 17 -3 6 6 16 8 23
6 7 -3 16 -1 19 4 3 5 -2 9 -11 8 -9 0 -18 5 -20 12 -3 6 0 12 7 12 6 0 8 -5
4 -11 -4 -7 -1 -10 7 -7 8 3 13 11 11 17 -1 7 2 10 8 6 6 -3 8 -10 5 -15 -3
-4 2 -11 11 -14 12 -4 15 -2 10 9 -8 22 3 19 26 -8 11 -12 17 -16 13 -9 -3 6
-2 12 4 12 6 0 8 7 5 15 -4 8 -1 15 6 15 6 0 9 -3 6 -8 -2 -4 2 -16 10 -27 10
-13 14 -15 14 -4 0 12 2 12 10 -1 5 -8 10 -10 10 -5 0 6 -5 17 -10 25 -8 12
-10 12 -10 1 0 -8 -3 -11 -6 -8 -4 4 -1 13 6 22 10 12 9 15 -5 15 -10 0 -16 3
-12 6 3 4 14 3 24 -1 10 -5 21 -7 26 -7 4 1 7 -3 7 -8 0 -6 -4 -10 -10 -10 -5
0 -7 -7 -3 -16 5 -13 9 -10 19 12 l13 29 -4 -28 c-2 -16 0 -25 6 -22 5 4 7 11
4 16 -4 5 -1 9 5 9 6 0 8 5 5 10 -4 6 -3 10 2 9 20 -4 27 2 13 12 -13 9 -13
10 0 6 18 -4 20 -43 2 -40 -7 2 -12 -2 -12 -7 0 -13 17 -13 25 0 10 15 23 12
28 -7 4 -17 5 -17 6 0 0 9 6 17 11 17 6 0 10 -8 11 -17 0 -12 2 -13 6 -5 3 7
-1 19 -7 28 -11 12 -10 13 5 8 12 -5 16 -4 11 4 -3 6 -1 14 5 18 8 4 9 3 5 -4
-4 -7 2 -11 16 -10 41 2 49 -2 42 -14 -5 -9 -2 -9 9 1 17 13 24 4 10 -15 -5
-5 -1 -2 8 8 9 9 20 14 24 10 5 -4 5 -1 1 6 -4 7 -1 12 8 12 9 0 16 5 16 12 0
6 3 8 6 5 4 -4 1 -13 -5 -21 -8 -10 -9 -16 -1 -21 6 -4 9 -3 8 2 -3 12 23 56
30 49 3 -3 17 1 31 11 21 13 24 14 13 1 -10 -13 -8 -18 15 -33 24 -16 26 -16
14 -2 -16 20 -1 23 18 5 11 -10 13 -10 7 0 -11 18 5 15 21 -5 13 -16 13 -16 4
4 -14 27 -14 36 -1 28 6 -3 10 -2 10 4 0 5 -5 11 -12 13 -7 3 -5 7 6 11 9 4
15 3 11 -2 -3 -5 3 -17 12 -27 17 -17 17 -18 0 -11 -15 6 -16 4 -6 -16 7 -12
12 -24 12 -27 -1 -3 0 -6 2 -8 1 -1 2 8 1 20 -1 14 4 22 12 20 9 -1 8 5 -3 22
-11 16 -13 26 -5 31 6 3 7 11 4 17 -4 7 -2 8 5 4 9 -6 9 -11 0 -22 -14 -17 -5
-18 22 -3 11 5 16 15 13 21 -4 7 -2 8 5 4 8 -5 9 -12 2 -20 -7 -9 -2 -17 20
-30 l31 -18 -16 30 c-10 20 -12 33 -6 37 6 4 7 11 4 17 -4 7 -2 8 5 4 9 -6 9
-11 1 -21 -13 -16 13 -40 32 -29 21 13 38 13 38 1 0 -7 5 -5 10 3 5 8 10 11
10 6 0 -4 11 -1 25 8 22 15 25 15 33 0 8 -15 10 -15 15 1 4 9 12 13 17 10 6
-4 10 -3 9 2 -4 21 2 43 12 43 6 0 8 -9 4 -20 -3 -11 -2 -20 4 -20 25 0 41 14
41 36 0 13 5 24 10 24 6 0 8 -12 6 -26 -4 -20 -2 -23 8 -15 7 6 15 9 18 6 2
-3 5 2 5 10 0 8 -3 12 -7 10 -4 -2 -7 2 -7 9 0 11 4 12 18 3 10 -6 15 -15 12
-20 -3 -5 7 -1 23 9 15 11 29 18 31 17 2 -2 4 -3 6 -2 28 8 38 6 33 -9 -5 -15
-5 -15 7 0 8 10 18 14 22 10 5 -4 5 -2 1 5 -3 6 -2 14 4 18 5 3 10 1 10 -6 0
-7 3 -10 6 -6 11 11 -7 29 -19 19 -7 -5 -20 -8 -30 -7 -9 2 -15 -1 -12 -5 3
-5 -3 -7 -15 -5 -11 2 -22 0 -25 -6 -9 -13 -22 -11 -28 4 -3 9 4 12 24 11 20
-1 34 5 44 19 8 12 15 16 15 9 0 -17 25 -15 40 3 7 8 16 13 20 10 5 -3 11 1
13 7 4 9 6 9 6 -1 1 -10 9 -7 28 10 15 13 21 16 14 7 -12 -15 -11 -18 3 -18 9
0 17 5 17 10 1 6 2 14 3 19 0 5 5 13 10 18 5 5 6 3 2 -5 -4 -7 -2 -12 5 -12
10 0 10 -3 1 -12 -15 -15 -16 -28 -2 -28 5 0 9 3 9 8 -1 4 0 10 1 15 1 4 3 12
4 19 1 13 46 22 46 9 0 -6 -8 -8 -17 -6 -13 2 -18 -4 -19 -21 -1 -13 2 -21 7
-18 5 3 9 12 9 21 0 9 3 14 6 10 4 -3 20 1 36 9 24 13 32 13 46 2 13 -11 14
-11 7 1 -6 10 -4 13 6 9 10 -4 15 1 16 13 1 10 -3 19 -8 19 -6 0 -7 -5 -3 -12
4 -6 3 -8 -4 -4 -5 3 -12 1 -14 -6 -3 -7 -7 -3 -10 9 -4 15 -2 20 7 17 7 -3
19 2 28 10 13 14 16 14 21 0 4 -10 2 -13 -7 -8 -9 6 -9 5 0 -8 7 -8 9 -19 5
-23 -4 -5 -2 -5 5 -1 6 3 10 19 7 34 l-4 27 16 -25 c8 -14 13 -17 10 -7 -3 11
-2 15 4 12 6 -3 10 -2 10 3 0 5 -10 14 -22 20 -21 9 -21 10 7 7 17 -1 36 2 43
7 9 8 12 6 12 -6 0 -10 -4 -15 -9 -11 -10 6 -36 -33 -28 -42 3 -2 8 4 11 15 4
11 12 19 19 18 22 -3 37 -17 31 -28 -4 -7 -2 -8 5 -4 8 5 9 12 2 20 -5 6 -15
25 -21 41 -11 30 -11 30 8 10 11 -11 18 -23 16 -26 -2 -3 3 -6 11 -6 18 0 20
14 3 19 -6 2 -12 11 -14 20 -1 12 4 15 23 12 17 -3 22 -1 17 7 -5 8 -3 9 6 4
7 -4 16 -2 22 6 8 11 9 10 4 -3 -3 -10 -1 -18 4 -18 6 0 10 9 10 20 0 17 3 19
19 11 10 -6 21 -7 25 -4 3 3 6 0 7 -8 0 -8 5 -3 10 10 8 20 11 22 26 10 12
-10 14 -10 9 -2 -4 7 -3 13 3 13 5 0 13 -4 16 -10 3 -5 11 -10 18 -10 6 0 1 7
-11 16 -12 8 -20 21 -16 27 3 7 -2 3 -10 -7 -12 -15 -16 -16 -16 -5 -1 10 -3
9 -11 -4 -6 -9 -14 -15 -20 -12 -5 4 -9 1 -9 -6 0 -8 -4 -8 -15 1 -8 7 -15 18
-15 24 0 6 4 5 9 -3 7 -12 12 -11 30 1 11 8 18 19 13 24 -4 4 1 2 11 -5 10 -8
17 -9 17 -3 0 11 38 11 56 0 16 -10 35 7 28 25 -3 9 -11 14 -16 11 -6 -4 -6
-9 2 -14 8 -5 9 -10 2 -14 -6 -4 -16 3 -22 15 -7 13 -8 19 -2 15 6 -3 13 -2
16 3 11 17 40 4 47 -20 6 -20 7 -21 8 -4 1 11 -7 32 -16 45 -15 22 -15 23 -1
12 14 -11 18 -10 27 5 6 10 11 14 11 9 0 -5 9 -1 21 10 12 10 23 18 25 17 11
-7 24 -2 19 7 -4 6 -3 10 2 9 20 -3 34 2 28 11 -3 6 -1 10 4 10 6 0 11 -3 11
-7 0 -11 -20 -40 -20 -29 0 5 -6 3 -14 -4 -8 -6 -12 -18 -9 -26 4 -12 8 -11
20 6 13 18 17 19 31 8 10 -8 13 -8 9 -1 -4 6 -4 13 0 16 5 2 2 2 -4 1 -16 -4
-17 12 -3 21 8 5 7 12 -2 23 -12 15 -11 16 5 3 16 -12 20 -12 35 3 16 17 16
18 -5 11 -13 -3 -23 -3 -23 2 0 5 8 10 18 11 44 5 56 10 63 28 5 13 8 14 8 4
1 -13 3 -13 10 0 6 8 8 17 6 20 -2 4 2 7 10 7 8 0 12 -4 9 -8 -2 -4 0 -10 6
-14 6 -4 7 -12 3 -18 -4 -7 0 -6 10 2 16 12 22 8 18 -12 -1 -5 3 -6 9 -2 8 5
8 11 -1 21 -6 7 -15 11 -20 8 -5 -3 -9 7 -9 22 l0 26 21 -23 c11 -13 18 -18
14 -12 -3 7 -1 13 5 13 6 0 8 4 5 10 -3 5 1 10 10 10 9 0 14 -4 11 -8 -3 -5 1
-9 9 -9 12 0 12 3 3 16 -7 9 -13 17 -14 19 -1 2 -12 -6 -23 -17 -16 -16 -21
-17 -21 -6 0 8 5 15 11 15 5 0 8 4 4 9 -3 5 0 13 6 17 8 5 9 3 4 -6 -5 -8 -3
-11 6 -8 8 3 13 10 12 16 -3 11 37 9 57 -3 9 -5 11 -4 6 4 -4 6 0 14 8 17 9 3
16 11 16 16 0 6 -6 5 -15 -2 -10 -9 -15 -9 -15 -1 0 6 5 11 11 11 5 0 8 4 5 8
-6 11 36 9 53 -2 10 -6 12 -6 7 2 -10 16 6 15 24 -1 8 -6 6 -1 -5 12 -14 18
-16 23 -5 19 11 -4 16 3 17 24 1 17 -2 26 -8 23 -5 -4 -7 -10 -4 -15 3 -5 -4
-15 -15 -23 -11 -7 -17 -17 -12 -22 4 -5 1 -5 -7 0 -12 7 -10 12 8 27 13 10
20 18 16 18 -4 0 -2 6 4 13 16 21 80 9 67 -12 -3 -4 1 -8 9 -8 8 0 15 4 15 9
0 4 -4 8 -8 8 -4 0 -8 9 -9 21 -2 20 -1 20 16 5 15 -13 18 -14 18 -1 0 8 -5
11 -10 8 -5 -3 -7 0 -5 8 3 8 14 13 24 12 10 -1 13 0 7 3 -7 3 -13 10 -13 15
0 6 4 8 10 4 5 -3 17 6 26 20 14 21 19 23 33 13 13 -10 14 -10 4 2 -7 8 -13
22 -13 31 0 22 28 51 42 43 6 -4 8 1 4 14 -4 13 -1 22 9 26 8 3 14 11 13 18
-2 7 4 12 12 13 8 0 15 6 15 13 0 8 10 19 22 25 21 12 23 15 23 38 0 5 5 7 10
4 6 -3 10 -1 10 4 0 6 6 11 13 11 7 -1 4 -8 -8 -18 -22 -20 -30 -42 -15 -42 6
0 10 7 10 15 0 13 4 14 23 5 21 -11 21 -10 3 4 -17 14 -18 16 -2 22 15 6 15 7
-1 19 -11 8 -22 10 -29 4 -7 -5 -11 -4 -11 5 0 8 8 13 17 11 9 -2 23 1 31 6
10 6 10 9 1 9 -7 0 1 14 18 31 16 18 30 36 30 42 0 5 8 15 17 22 21 15 27 49
8 41 -8 -3 -17 -1 -20 4 -3 4 7 7 21 5 15 -1 28 3 31 11 3 8 10 14 15 14 6 0
5 -7 -2 -15 -11 -13 -10 -14 4 -9 10 4 15 13 12 21 -3 8 -6 17 -6 19 0 3 -4 2
-10 -1 -6 -3 -7 1 -4 9 3 9 9 16 13 16 12 0 32 -51 25 -62 -5 -7 -2 -8 5 -4 7
5 9 15 5 25 -3 9 -10 33 -14 54 -6 31 -5 35 6 26 11 -9 14 -7 14 9 0 12 5 24
10 27 6 4 8 15 5 26 -4 12 -2 19 6 19 7 0 10 -3 6 -6 -3 -4 0 -13 8 -20 18
-19 31 -18 15 1 -14 17 -22 77 -9 69 5 -3 7 -10 4 -15 -4 -5 -1 -9 4 -9 20 0
11 37 -11 49 -21 10 -21 11 -2 6 13 -3 21 0 21 7 0 7 2 20 4 28 2 8 -2 14 -9
12 -8 -1 -11 2 -7 8 5 8 11 8 21 0 15 -13 14 -31 -1 -42 -6 -5 -5 -8 3 -8 6 0
12 -5 12 -11 0 -5 -4 -7 -10 -4 -6 4 -7 -1 -3 -11 4 -11 8 -13 11 -6 2 7 7 10
11 8 10 -6 8 25 -3 42 -10 16 -1 15 32 -4 l27 -16 -25 21 c-22 18 -21 25 1 23
4 -1 5 7 2 18 -6 22 -30 34 -30 14 0 -7 5 -10 10 -7 5 3 8 0 5 -7 -10 -30 -27
-21 -25 13 1 21 6 32 12 29 21 -13 33 -9 30 9 -4 22 5 24 25 7 12 -11 12 -10
1 4 -8 10 -22 16 -35 14 -11 -3 -21 -5 -21 -6 0 -1 -8 -3 -18 -5 -9 -2 -15 1
-11 6 3 5 9 7 14 4 5 -3 11 -1 15 5 4 6 11 8 17 4 6 -4 8 3 6 17 -2 15 -9 23
-18 21 -8 -2 -3 8 12 21 15 13 25 27 21 31 -11 11 -12 36 -1 33 6 -1 13 4 15
11 3 8 -1 10 -13 5 -14 -5 -13 -2 5 16 13 13 19 27 14 34 -15 25 -12 37 7 27
13 -7 20 -6 24 6 3 8 10 13 15 10 5 -3 7 3 4 14 -3 11 -9 20 -12 20 -4 0 -8 7
-8 15 0 8 6 15 13 15 6 0 15 7 18 16 5 14 4 15 -8 5 -8 -7 -19 -10 -23 -8 -5
3 -9 -10 -9 -28 0 -18 4 -31 9 -28 5 3 8 0 5 -7 -6 -18 -29 -26 -26 -8 2 7 -3
12 -11 10 -12 -3 -12 -1 0 14 8 9 14 24 15 33 0 9 4 23 8 32 4 9 6 20 5 25 -3
20 2 34 12 34 8 0 8 -4 0 -14 -9 -10 -9 -16 -1 -21 8 -5 7 -11 -2 -22 -12 -15
-11 -15 9 -3 19 12 19 15 6 25 -13 10 -13 13 1 24 12 10 13 17 6 26 -8 9 -8
15 0 20 6 3 7 11 4 17 -5 8 -1 9 12 4 10 -4 15 -4 11 0 -4 4 -1 14 6 23 10 14
10 14 -5 3 -22 -18 -41 -7 -29 16 13 24 -11 54 -35 47 -11 -4 -5 2 11 12 28
17 47 53 27 53 -5 0 -8 18 -8 41 2 42 -7 58 -20 38 -5 -8 -3 -9 5 -4 10 6 11
3 2 -14 -9 -16 -9 -21 1 -21 10 0 10 -2 -1 -9 -9 -6 -10 -10 -2 -14 7 -3 7 -5
-1 -3 -9 2 -13 20 -12 54 0 29 -3 52 -8 52 -4 0 -7 6 -5 13 1 6 -6 11 -15 11
-24 -2 -23 1 6 20 23 15 25 15 21 -3 -4 -23 10 -47 19 -32 4 6 2 11 -4 11 -6
0 -8 5 -5 10 4 6 12 7 18 3 18 -11 38 -12 31 -2 -3 5 -9 7 -13 4 -5 -2 -17 5
-27 17 -14 15 -16 22 -6 25 6 3 12 10 12 16 0 6 -11 0 -24 -12 -18 -17 -26
-19 -31 -10 -5 7 -4 10 2 6 6 -4 10 9 10 30 0 32 -2 34 -14 17 -7 -10 -13 -13
-13 -7 0 6 7 16 15 23 8 7 12 16 9 21 -3 5 2 12 11 15 13 6 14 8 3 15 -7 5
-17 9 -23 9 -5 0 -3 -5 5 -10 8 -5 11 -10 5 -10 -5 0 -21 9 -35 20 -14 12 -18
18 -8 14 14 -5 16 -1 13 17 -5 24 12 52 25 44 4 -3 11 2 14 10 5 13 2 14 -22
1 -30 -16 -58 -7 -50 15 3 8 2 21 -3 30 -5 10 -3 16 6 16 7 0 11 -7 8 -16 -4
-14 -4 -14 6 -1 7 9 11 10 11 3 0 -6 -4 -15 -10 -18 -5 -3 -10 -10 -10 -15 0
-10 27 -7 37 5 4 4 2 5 -5 1 -15 -9 -15 -1 -2 25 6 11 7 19 3 18 -18 -3 -52
14 -58 28 -4 13 -3 14 10 3 13 -11 14 -10 9 5 -6 14 -4 16 7 10 8 -5 11 -5 6
1 -5 5 -13 10 -18 10 -5 1 -12 2 -15 3 -4 0 0 9 7 18 8 9 9 14 3 10 -16 -9
-25 28 -10 44 8 9 8 10 0 6 -13 -7 -29 38 -19 53 3 4 0 10 -6 12 -5 2 -11 22
-12 45 -1 22 -5 39 -8 37 -6 -3 -14 24 -23 76 -1 3 -5 11 -9 18 -5 6 -5 12 0
12 4 0 3 4 -3 8 -5 4 -18 30 -28 57 -17 47 -73 158 -125 250 -122 215 -403
514 -666 713 -5 4 -29 22 -51 40 -23 17 -47 32 -53 32 -6 0 -11 4 -11 9 0 5
-8 12 -17 15 -10 3 -30 17 -44 30 -15 14 -30 22 -33 19 -3 -4 -6 -1 -6 5 0 7
-6 12 -12 12 -7 0 -24 9 -38 20 -14 11 -18 18 -9 14 10 -3 20 0 25 7 4 7 3 10
-4 6 -14 -10 -40 2 -38 16 1 7 6 18 10 26 6 9 5 12 -2 7 -15 -9 -21 15 -10 38
7 13 7 16 -1 12 -6 -4 -11 -1 -12 6 0 7 -3 22 -5 33 -2 11 -6 29 -8 40 -2 11
-6 27 -9 35 -3 8 -14 38 -24 65 -10 28 -17 53 -15 58 1 4 -2 7 -7 7 -5 0 -13
10 -17 22 -10 34 -62 116 -118 188 -91 117 -206 221 -361 325 -226 151 -465
255 -760 330 -16 5 -34 9 -40 11 -88 25 -235 50 -235 40 0 -7 -3 -6 -8 1 -8
13 -42 20 -127 28 -27 2 -50 5 -50 5 0 4 -49 10 -118 15 -44 3 -83 7 -87 10
-5 3 -12 1 -15 -5 -5 -8 -11 -7 -22 1 -11 10 -16 10 -23 0 -4 -8 -9 -9 -11 -3
-5 14 -189 20 -189 7 0 -7 -3 -7 -8 0 -6 8 -77 16 -85 9z m2408 -1403 c3 -5 2
-12 -3 -15 -5 -3 -9 1 -9 9 0 17 3 19 12 6z m61 -43 c19 -23 19 -23 -2 -5 -11
9 -24 14 -29 10 -4 -5 -5 -2 -1 5 9 16 10 16 32 -10z m-5836 -1452 c0 -2 -7
-6 -15 -10 -8 -3 -15 -1 -15 4 0 6 7 10 15 10 8 0 15 -2 15 -4z m6950 -150 c0
-2 -7 -7 -16 -10 -8 -3 -12 -2 -9 4 6 10 25 14 25 6z m28 -101 c-3 -3 -9 2
-12 12 -6 14 -5 15 5 6 7 -7 10 -15 7 -18z m-7052 -122 c-6 -6 -36 9 -36 18 0
5 9 4 20 -3 10 -7 18 -14 16 -15z m-6 -37 c0 -2 -7 -7 -16 -10 -8 -3 -12 -2
-9 4 6 10 25 14 25 6z m7084 -104 c2 -4 -4 -8 -14 -8 -10 0 -16 4 -14 8 3 4 9
8 14 8 5 0 11 -4 14 -8z m39 -18 c3 -3 3 -13 0 -21 -5 -12 -7 -12 -14 -1 -7
10 -9 10 -9 1 0 -7 -5 -13 -10 -13 -6 0 -5 8 2 20 13 21 21 24 31 14z m0 -80
c8 -8 -3 -34 -15 -34 -6 0 -4 7 3 16 12 15 11 16 -10 9 -16 -5 -21 -4 -17 4 8
12 29 15 39 5z m-9 -49 c15 0 15 -36 0 -42 -12 -4 -12 -8 3 -19 16 -13 15 -13
-10 -2 -27 11 -28 12 -7 23 11 6 18 14 14 18 -4 4 -14 1 -23 -6 -14 -11 -14
-10 -2 6 12 16 9 22 -12 18 -5 -1 -6 3 -2 9 3 6 12 7 18 3 7 -4 16 -8 21 -8z
m-7129 -75 c3 -5 2 -10 -4 -10 -5 0 -13 5 -16 10 -3 6 -2 10 4 10 5 0 13 -4
16 -10z m0 -98 c-3 -3 -11 0 -18 7 -9 10 -8 11 6 5 10 -3 15 -9 12 -12z m19
-28 c9 -24 2 -26 -12 -4 -7 11 -8 20 -3 20 5 0 12 -7 15 -16z m20 -149 c-3
-20 0 -23 16 -20 28 5 25 -10 -5 -23 -15 -7 -27 -8 -30 -2 -4 6 -1 10 5 10 8
0 8 6 0 20 -6 11 -8 20 -4 20 3 0 1 6 -5 14 -10 12 -9 13 8 9 14 -3 18 -11 15
-28z m7016 -139 c0 -3 -4 -8 -10 -11 -5 -3 -10 -1 -10 4 0 6 5 11 10 11 6 0
10 -2 10 -4z m-6926 -101 c-4 -8 -11 -12 -16 -9 -6 4 -5 10 3 15 19 12 19 11
13 -6z m66 -60 c14 -19 14 -19 -2 -6 -10 7 -18 18 -18 24 0 6 1 8 3 6 1 -2 9
-13 17 -24z m-34 -4 c-3 -5 1 -12 10 -15 9 -4 14 -9 11 -13 -4 -3 -2 -13 5
-20 7 -8 12 -24 13 -34 2 -17 -2 -16 -21 8 -13 15 -24 31 -25 36 -1 4 -2 10
-3 15 -1 4 -5 13 -9 20 -5 8 -3 12 8 12 9 0 14 -4 11 -9z m61 -93 c-3 -8 -6
-5 -6 6 -1 11 2 17 5 13 3 -3 4 -12 1 -19z m70 -94 c-3 -3 -12 -4 -19 -1 -8 3
-5 6 6 6 11 1 17 -2 13 -5z m12 -38 c-2 -2 -15 -7 -29 -10 l-25 -7 25 15 c21
12 42 14 29 2z m6491 -70 c0 -3 -4 -8 -10 -11 -5 -3 -10 -1 -10 4 0 6 5 11 10
11 6 0 10 -2 10 -4z m-6430 -21 c-9 -10 -9 -15 -1 -15 6 0 11 -5 11 -12 0 -8
-7 -6 -17 5 -16 16 -16 19 -3 27 21 14 24 12 10 -5z m97 -122 c-4 -3 0 -15 9
-25 16 -17 18 -17 31 0 12 15 13 14 2 -8 -16 -34 -15 -33 -38 -21 -14 8 -19
19 -17 34 6 29 5 27 13 27 3 0 3 -3 0 -7z m107 -81 c3 -5 -1 -9 -9 -9 -8 0
-12 4 -9 9 3 4 7 8 9 8 2 0 6 -4 9 -8z m5991 -82 c3 -6 -1 -7 -9 -4 -18 7 -21
14 -7 14 6 0 13 -4 16 -10z m-13 -45 c-9 -13 -19 -23 -22 -22 -13 4 -61 -53
-54 -64 4 -8 3 -9 -4 -5 -18 11 -14 34 6 40 22 7 54 60 44 72 -4 4 2 2 12 -6
18 -14 19 -13 13 2 -4 12 -2 15 8 12 12 -5 12 -10 -3 -29z m-5902 6 c0 -5 8
-11 18 -13 11 -2 13 -6 6 -10 -6 -4 -19 1 -29 12 -10 12 -13 20 -7 20 7 0 12
-4 12 -9z m5840 -21 c-8 -5 -19 -10 -25 -10 -5 0 -3 5 5 10 8 5 20 10 25 10 6
0 3 -5 -5 -10z m-5775 -10 c-3 -5 -12 -10 -18 -10 -7 0 -6 4 3 10 19 12 23 12
15 0z m22 -25 c0 -8 -4 -12 -9 -9 -5 3 -6 10 -3 15 9 13 12 11 12 -6z m63 -45
c0 -5 -2 -10 -4 -10 -3 0 -8 5 -11 10 -3 6 -1 10 4 10 6 0 11 -4 11 -10z
m5557 -52 c2 -17 0 -19 -7 -8 -5 8 -6 18 -4 22 8 12 10 10 11 -14z m-43 -54
c3 -8 2 -12 -4 -9 -6 3 -10 10 -10 16 0 14 7 11 14 -7z m-5234 -101 c0 -3 -7
-2 -16 1 -12 5 -15 2 -10 -10 3 -8 6 -21 6 -27 0 -7 4 -6 10 3 8 12 10 12 10
1 0 -10 3 -11 14 -2 10 9 16 9 21 1 4 -6 4 -14 1 -17 -3 -4 -6 -1 -6 6 0 7 -5
9 -10 6 -6 -4 -8 -11 -5 -16 4 -5 1 -9 -4 -9 -6 0 -11 5 -11 11 0 5 -4 8 -9 4
-5 -3 -16 2 -25 11 -20 19 -4 57 19 48 8 -4 15 -8 15 -11z m4897 -98 c0 -8 -4
-12 -9 -9 -5 3 -6 10 -3 15 9 13 12 11 12 -6z m-117 -49 c0 -3 -4 -8 -10 -11
-5 -3 -10 -1 -10 4 0 6 5 11 10 11 6 0 10 -2 10 -4z m-4509 -59 c-10 -9 -11
-8 -5 6 3 10 9 15 12 12 3 -3 0 -11 -7 -18z m137 -57 c-7 -11 -17 -20 -22 -20
-5 0 -1 9 9 20 10 11 20 20 22 20 2 0 -2 -9 -9 -20z m4149 -5 c0 -8 -4 -12 -9
-9 -5 3 -6 10 -3 15 9 13 12 11 12 -6z m-4130 -2 c-3 -5 1 -14 9 -21 11 -10
14 -10 15 0 0 10 2 10 6 1 2 -7 9 -13 14 -13 6 0 7 6 3 13 -4 6 2 4 13 -6 11
-9 23 -14 28 -10 4 5 5 2 1 -4 -4 -7 -2 -13 3 -13 6 0 11 -5 11 -11 0 -8 -5
-7 -16 2 -9 7 -22 14 -30 16 -8 2 -20 4 -28 6 -21 4 -46 28 -40 38 3 5 7 9 10
9 3 0 3 -3 1 -7z m130 -68 c0 -8 -4 -12 -9 -9 -4 3 -8 9 -8 15 0 5 4 9 8 9 5
0 9 -7 9 -15z m3788 -64 c3 -6 -4 -15 -15 -21 -20 -11 -21 -10 -10 9 12 23 16
25 25 12z m-3605 -11 c0 -5 -4 -10 -10 -10 -5 0 -10 5 -10 10 0 6 5 10 10 10
6 0 10 -4 10 -10z m80 1 c0 -6 -4 -12 -8 -15 -5 -3 -9 1 -9 9 0 8 4 15 9 15 4
0 8 -4 8 -9z m60 -62 c6 -10 7 -19 2 -19 -5 0 -14 12 -20 26 -14 29 2 24 18
-7z m70 1 c-10 -6 -11 -10 -2 -10 6 0 12 -5 12 -11 0 -8 -4 -9 -13 0 -8 6 -18
7 -23 3 -4 -4 -2 1 5 11 7 9 19 17 25 17 6 0 4 -5 -4 -10z m3024 -38 c2 -4 -5
-9 -17 -9 -17 -2 -19 0 -7 7 18 12 18 12 24 2z m-117 -27 c0 -8 -4 -12 -9 -9
-5 3 -6 10 -3 15 9 13 12 11 12 -6z m-2537 -15 c0 -5 -5 -10 -11 -10 -5 0 -7
5 -4 10 3 6 8 10 11 10 2 0 4 -4 4 -10z m2434 -18 c3 -5 -1 -9 -9 -9 -8 0 -12
4 -9 9 3 4 7 8 9 8 2 0 6 -4 9 -8z m84 -30 c-9 -10 -13 -10 -19 -1 -5 9 -14 8
-33 -5 -19 -12 -26 -13 -26 -4 0 10 -2 10 -9 0 -7 -11 -9 -11 -14 1 -4 12 0
14 19 11 14 -3 23 -1 20 4 -3 5 6 10 21 10 15 0 29 5 31 12 3 9 6 9 13 -1 4
-8 3 -19 -3 -27z m70 26 c-2 -6 -10 -14 -16 -16 -7 -2 -10 2 -6 12 7 18 28 22
22 4z m-2403 -18 c-3 -5 -12 -10 -18 -10 -7 0 -6 4 3 10 19 12 23 12 15 0z
m2217 -21 c2 -2 1 -3 -1 -2 -2 2 -10 -2 -18 -9 -15 -12 -28 -5 -19 10 6 10 32
11 38 1z m-2182 -18 c0 -6 -4 -13 -10 -16 -5 -3 -10 1 -10 9 0 9 5 16 10 16 6
0 10 -4 10 -9z m35 -1 c10 8 13 7 11 -4 -3 -24 -16 -32 -26 -16 -6 8 -9 20 -9
25 0 6 3 4 6 -3 4 -9 8 -10 18 -2z m209 -18 c3 -5 -1 -9 -9 -9 -8 0 -12 4 -9
9 3 4 7 8 9 8 2 0 6 -4 9 -8z m101 -2 c-3 -5 -12 -10 -18 -10 -7 0 -6 4 3 10
19 12 23 12 15 0z m1469 2 c3 -5 -1 -9 -9 -9 -8 0 -12 4 -9 9 3 4 7 8 9 8 2 0
6 -4 9 -8z m40 0 c3 -5 -1 -9 -9 -9 -8 0 -12 4 -9 9 3 4 7 8 9 8 2 0 6 -4 9
-8z m106 -4 c0 -9 4 -8 11 2 8 12 10 12 7 1 -2 -8 -14 -15 -25 -16 -14 -1 -19
3 -16 12 6 17 23 17 23 1z m-220 -18 c0 -5 -5 -10 -11 -10 -5 0 -7 5 -4 10 3
6 8 10 11 10 2 0 4 -4 4 -10z m37 -9 c-1 -15 -4 -17 -14 -9 -15 12 -17 22 -3
13 6 -3 10 -1 10 4 0 6 2 11 4 11 3 0 4 -9 3 -19z m31 -5 c-7 -8 -15 -12 -17
-11 -5 6 10 25 20 25 5 0 4 -6 -3 -14z m-1440 -7 c-2 -6 -8 -10 -13 -10 -5 0
-11 4 -13 10 -2 6 4 11 13 11 9 0 15 -5 13 -11z m1089 -4 c0 -8 -4 -12 -9 -9
-4 3 -8 9 -8 15 0 5 4 9 8 9 5 0 9 -7 9 -15z m203 -16 c0 -6 -4 -7 -10 -4 -5
3 -10 11 -10 16 0 6 5 7 10 4 6 -3 10 -11 10 -16z m-903 -11 c0 -13 -1 -17 -4
-10 -4 10 -8 10 -21 0 -14 -12 -14 -11 -1 10 8 12 16 22 19 22 3 0 6 -10 7
-22z m399 -4 c-3 -8 -1 -14 4 -14 6 0 10 6 10 13 0 9 2 9 8 0 12 -18 54 -12
47 7 -5 12 -4 12 6 3 10 -10 9 -17 -6 -33 -10 -11 -23 -16 -29 -13 -14 9 -36
14 -58 14 -10 0 -18 8 -18 17 0 13 2 14 9 3 6 -9 11 -10 15 -2 4 6 4 16 0 23
-5 7 -3 8 5 4 7 -5 10 -14 7 -22z m-363 -5 c-8 -8 -13 -7 -18 2 -5 8 -4 10 3
5 7 -4 12 -2 12 5 0 7 3 9 7 6 4 -4 2 -12 -4 -18z m-113 1 c0 -5 -5 -10 -11
-10 -5 0 -7 5 -4 10 3 6 8 10 11 10 2 0 4 -4 4 -10z m144 -6 c3 -8 2 -12 -4
-9 -6 3 -10 10 -10 16 0 14 7 11 14 -7z"/>
<path d="M920 2696 c0 -2 8 -10 18 -17 15 -13 16 -12 3 4 -13 16 -21 21 -21
13z"/>
<path d="M1210 2276 c0 -2 8 -10 18 -17 15 -13 16 -12 3 4 -13 16 -21 21 -21
13z"/>
<path d="M6590 5650 c0 -5 5 -10 11 -10 5 0 7 5 4 10 -3 6 -8 10 -11 10 -2 0
-4 -4 -4 -10z"/>
<path d="M1926 5598 c3 -5 10 -6 15 -3 13 9 11 12 -6 12 -8 0 -12 -4 -9 -9z"/>
<path d="M6627 5599 c7 -7 15 -10 18 -7 3 3 -2 9 -12 12 -14 6 -15 5 -6 -5z"/>
<path d="M860 4231 c0 -6 4 -13 10 -16 6 -3 7 1 4 9 -7 18 -14 21 -14 7z"/>
<path d="M7761 4176 c-9 -11 -9 -16 1 -22 7 -4 10 -4 6 1 -4 4 -3 14 3 22 6 7
9 13 6 13 -2 0 -10 -6 -16 -14z"/>
<path d="M830 4161 c0 -6 4 -13 10 -16 6 -3 7 1 4 9 -7 18 -14 21 -14 7z"/>
<path d="M830 4120 c0 -5 7 -7 15 -4 8 4 15 8 15 10 0 2 -7 4 -15 4 -8 0 -15
-4 -15 -10z"/>
<path d="M7790 4080 c0 -5 5 -10 11 -10 5 0 7 5 4 10 -3 6 -8 10 -11 10 -2 0
-4 -4 -4 -10z"/>
<path d="M7815 4040 c3 -5 8 -10 11 -10 2 0 4 5 4 10 0 6 -5 10 -11 10 -5 0
-7 -4 -4 -10z"/>
<path d="M806 4015 c5 -13 4 -16 -4 -11 -7 4 -12 2 -12 -3 0 -13 10 -14 28 -2
10 6 10 10 -3 21 -13 11 -14 10 -9 -5z"/>
<path d="M7807 4019 c7 -7 15 -10 18 -7 3 3 -2 9 -12 12 -14 6 -15 5 -6 -5z"/>
<path d="M736 3942 c-3 -5 1 -9 9 -9 8 0 12 4 9 9 -3 4 -7 8 -9 8 -2 0 -6 -4
-9 -8z"/>
<path d="M750 3910 c8 -5 20 -10 25 -10 6 0 3 5 -5 10 -8 5 -19 10 -25 10 -5
0 -3 -5 5 -10z"/>
<path d="M7829 3906 c-7 -6 -3 -54 3 -50 5 3 7 9 4 12 -3 3 1 13 9 22 13 15
13 17 0 17 -8 0 -15 -1 -16 -1z"/>
<path d="M734 3879 c-4 -8 -3 -9 4 -5 16 10 15 -7 0 -23 -11 -10 -10 -11 5 -6
18 8 23 30 8 40 -5 3 -13 0 -17 -6z"/>
<path d="M7855 3880 c-3 -6 1 -7 9 -4 18 7 21 14 7 14 -6 0 -13 -4 -16 -10z"/>
<path d="M7866 3862 c-3 -5 1 -9 9 -9 8 0 12 4 9 9 -3 4 -7 8 -9 8 -2 0 -6 -4
-9 -8z"/>
<path d="M7868 3813 c7 -3 16 -2 19 1 4 3 -2 6 -13 5 -11 0 -14 -3 -6 -6z"/>
<path d="M686 3802 c-3 -5 1 -9 9 -9 8 0 12 4 9 9 -3 4 -7 8 -9 8 -2 0 -6 -4
-9 -8z"/>
<path d="M7855 3769 c-1 -15 3 -25 7 -23 5 3 6 10 3 15 -4 5 -1 9 4 9 15 0 14
17 -2 23 -8 3 -12 -5 -12 -24z"/>
<path d="M694 3738 c-3 -5 0 -7 8 -6 7 2 12 -3 11 -9 -4 -19 5 -16 16 5 8 14
6 18 -11 18 -10 0 -22 -4 -24 -8z"/>
<path d="M7894 3719 c-4 -7 -3 -9 4 -5 5 3 13 0 15 -6 4 -9 6 -10 6 -1 1 17
-16 25 -25 12z"/>
<path d="M7886 3645 c-16 -12 -17 -15 -4 -15 9 0 18 7 22 15 7 18 6 18 -18 0z"/>
<path d="M697 3619 c6 -23 9 -24 16 -5 3 8 0 17 -7 19 -10 4 -12 -1 -9 -14z"/>
<path d="M7914 3626 c1 -8 5 -18 8 -22 4 -3 5 1 4 10 -1 8 -5 18 -8 22 -4 3
-5 -1 -4 -10z"/>
<path d="M669 3583 c-13 -16 -12 -17 4 -4 9 7 17 15 17 17 0 8 -8 3 -21 -13z"/>
<path d="M7915 3569 c-4 -6 -5 -12 -2 -15 2 -3 7 2 10 11 7 17 1 20 -8 4z"/>
<path d="M696 3556 c6 -15 4 -17 -6 -11 -9 6 -11 4 -5 -4 5 -9 10 -10 18 -2 8
8 7 14 -2 24 -10 10 -11 8 -5 -7z"/>
<path d="M7956 3487 c3 -10 9 -15 12 -12 3 3 0 11 -7 18 -10 9 -11 8 -5 -6z"/>
<path d="M676 3453 c-6 -14 -5 -15 5 -6 7 7 10 15 7 18 -3 3 -9 -2 -12 -12z"/>
<path d="M7956 3433 c-6 -14 -5 -15 5 -6 7 7 10 15 7 18 -3 3 -9 -2 -12 -12z"/>
<path d="M670 3381 c0 -6 4 -12 8 -15 5 -3 9 1 9 9 0 8 -4 15 -9 15 -4 0 -8
-4 -8 -9z"/>
<path d="M715 3379 c-10 -15 3 -25 16 -12 7 7 7 13 1 17 -6 3 -14 1 -17 -5z"/>
<path d="M7915 3351 c-3 -5 -2 -12 3 -15 5 -3 9 1 9 9 0 17 -3 19 -12 6z"/>
<path d="M7910 3305 c-7 -9 -8 -15 -2 -15 5 0 12 7 16 15 3 8 4 15 2 15 -2 0
-9 -7 -16 -15z"/>
<path d="M710 3280 c-11 -7 -11 -10 -2 -10 8 0 10 -5 6 -12 -5 -9 -2 -9 9 1
30 24 19 41 -13 21z"/>
<path d="M690 3240 c0 -5 5 -10 11 -10 5 0 7 5 4 10 -3 6 -8 10 -11 10 -2 0
-4 -4 -4 -10z"/>
<path d="M719 3208 c-8 -27 -5 -36 9 -30 10 4 12 7 4 10 -7 2 -10 8 -6 13 3 5
3 9 0 9 -3 0 -6 -1 -7 -2z"/>
<path d="M7913 3165 c0 -8 4 -12 9 -9 5 3 6 10 3 15 -9 13 -12 11 -12 -6z"/>
<path d="M7885 3140 c-3 -5 -1 -10 4 -10 6 0 11 5 11 10 0 6 -2 10 -4 10 -3 0
-8 -4 -11 -10z"/>
<path d="M7847 3130 c9 -10 9 -19 2 -33 -8 -14 -8 -18 0 -13 18 12 12 -6 -10
-31 -20 -20 -20 -23 -6 -29 15 -5 14 -8 -4 -23 -19 -15 -20 -20 -9 -40 8 -16
15 -20 22 -13 7 7 7 16 0 29 -9 14 -6 20 11 30 12 7 16 12 9 13 -7 0 -10 4 -7
10 3 5 8 20 10 32 3 12 10 26 17 31 9 6 8 7 -4 3 -10 -3 -18 -1 -18 3 0 5 6
11 12 13 8 3 3 10 -12 18 -20 10 -23 10 -13 0z m7 -85 c-4 -8 -11 -15 -16 -15
-6 0 -5 6 2 15 7 8 14 15 16 15 2 0 1 -7 -2 -15z m-14 -90 c0 -5 -5 -3 -10 5
-5 8 -10 20 -10 25 0 6 5 3 10 -5 5 -8 10 -19 10 -25z"/>
<path d="M703 3116 c-3 -6 -3 -8 2 -4 4 4 13 1 19 -8 10 -13 12 -13 12 4 0 20
-23 26 -33 8z"/>
<path d="M763 3123 c-7 -3 -13 -9 -13 -14 0 -6 5 -7 10 -4 6 3 10 1 10 -6 0
-10 3 -10 12 -1 14 14 0 32 -19 25z"/>
<path d="M7875 3040 c-3 -5 -1 -10 4 -10 6 0 11 5 11 10 0 6 -2 10 -4 10 -3 0
-8 -4 -11 -10z"/>
<path d="M773 2945 c0 -8 4 -12 9 -9 5 3 6 10 3 15 -9 13 -12 11 -12 -6z"/>
<path d="M710 2941 c0 -6 4 -13 10 -16 6 -3 7 1 4 9 -7 18 -14 21 -14 7z"/>
<path d="M7829 2857 c6 -8 7 -18 3 -22 -4 -5 -1 -5 6 -1 10 6 10 11 1 22 -6 8
-14 14 -16 14 -3 0 0 -6 6 -13z"/>
<path d="M795 2840 c-3 -5 -1 -10 4 -10 6 0 11 5 11 10 0 6 -2 10 -4 10 -3 0
-8 -4 -11 -10z"/>
<path d="M817 2799 c7 -7 15 -10 18 -7 3 3 -2 9 -12 12 -14 6 -15 5 -6 -5z"/>
<path d="M838 2773 c7 -3 16 -2 19 1 4 3 -2 6 -13 5 -11 0 -14 -3 -6 -6z"/>
<path d="M7750 2720 c-13 -8 -12 -10 3 -10 9 0 17 5 17 10 0 12 -1 12 -20 0z"/>
<path d="M893 2665 c0 -8 4 -15 9 -15 4 0 8 4 8 9 0 6 -4 12 -8 15 -5 3 -9 -1
-9 -9z"/>
<path d="M7705 2660 c-3 -5 -1 -10 4 -10 6 0 11 5 11 10 0 6 -2 10 -4 10 -3 0
-8 -4 -11 -10z"/>
<path d="M7703 2625 c0 -8 4 -12 9 -9 5 3 6 10 3 15 -9 13 -12 11 -12 -6z"/>
<path d="M910 2622 c0 -5 7 -9 15 -9 8 0 15 4 15 9 0 4 -7 8 -15 8 -8 0 -15
-4 -15 -8z"/>
<path d="M7688 2583 c5 -21 7 -23 10 -9 2 10 0 22 -6 28 -6 6 -7 0 -4 -19z"/>
<path d="M937 2585 c-4 -8 -3 -16 1 -19 4 -3 9 4 9 15 2 23 -3 25 -10 4z"/>
<path d="M972 2540 c0 -14 2 -19 5 -12 2 6 2 18 0 25 -3 6 -5 1 -5 -13z"/>
<path d="M7615 2509 c-5 -8 -4 -10 3 -5 22 14 12 -6 -13 -26 -23 -18 -26 -46
-4 -32 6 3 8 8 5 11 -3 3 5 14 17 24 16 13 19 20 11 29 -9 9 -14 9 -19 -1z"/>
<path d="M7653 2485 c0 -8 4 -12 9 -9 5 3 6 10 3 15 -9 13 -12 11 -12 -6z"/>
<path d="M990 2480 c0 -5 5 -10 11 -10 5 0 7 5 4 10 -3 6 -8 10 -11 10 -2 0
-4 -4 -4 -10z"/>
<path d="M1070 2462 c0 -6 -8 -9 -17 -7 -10 1 -12 0 -5 -2 7 -3 9 -10 5 -16
-4 -7 2 -5 13 3 10 8 20 15 22 16 2 1 -1 5 -7 9 -6 3 -11 2 -11 -3z"/>
<path d="M7616 2441 c-4 -5 3 -7 14 -4 23 6 26 13 6 13 -8 0 -17 -4 -20 -9z"/>
<path d="M7565 2430 c-4 -6 -3 -10 1 -10 3 0 -4 -9 -17 -20 -17 -14 -20 -20
-9 -20 9 0 5 -6 -10 -15 -18 -10 -20 -14 -8 -15 9 0 20 5 23 10 5 8 12 7 23
-2 14 -11 14 -9 0 8 -23 26 -23 41 -1 23 14 -12 16 -12 8 0 -5 9 -2 18 9 26
14 11 15 13 2 18 -9 4 -18 2 -21 -3z"/>
<path d="M1020 2426 c0 -2 8 -10 18 -17 15 -13 16 -12 3 4 -13 16 -21 21 -21
13z"/>
<path d="M7620 2415 c-7 -9 -11 -17 -9 -20 3 -2 10 5 17 15 14 24 10 26 -8 5z"/>
<path d="M1085 2380 c-3 -5 -1 -10 4 -10 6 0 11 5 11 10 0 6 -2 10 -4 10 -3 0
-8 -4 -11 -10z"/>
<path d="M1093 2325 c0 -8 4 -12 9 -9 5 3 6 10 3 15 -9 13 -12 11 -12 -6z"/>
<path d="M7534 2318 c-4 -7 -4 -10 1 -6 4 4 15 2 24 -5 14 -11 14 -10 2 6 -16
20 -18 21 -27 5z"/>
<path d="M1119 2293 c-13 -16 -12 -17 4 -4 9 7 17 15 17 17 0 8 -8 3 -21 -13z"/>
<path d="M1158 2283 c7 -3 16 -2 19 1 4 3 -2 6 -13 5 -11 0 -14 -3 -6 -6z"/>
<path d="M7440 2270 c-8 -6 -11 -10 -6 -10 5 0 3 -7 -4 -15 -7 -8 -17 -12 -23
-8 -6 4 -7 1 -3 -6 5 -7 1 -18 -7 -24 -10 -8 -12 -18 -7 -32 8 -18 9 -18 9 -2
1 10 5 15 11 12 6 -4 7 1 3 11 -4 12 -3 15 5 10 8 -5 10 -2 5 10 -5 14 -3 15
16 5 12 -7 18 -17 15 -23 -5 -7 -2 -8 5 -3 9 5 10 10 2 18 -15 15 -14 30 2 21
10 -6 10 -4 0 7 -7 7 -13 17 -13 22 0 6 5 5 13 0 15 -13 47 -13 47 0 0 5 -7 6
-16 3 -9 -4 -22 -2 -28 3 -7 6 -17 6 -26 1z"/>
<path d="M1156 2238 c3 -5 10 -6 15 -3 13 9 11 12 -6 12 -8 0 -12 -4 -9 -9z"/>
<path d="M1220 2200 c-18 -12 -2 -12 25 0 13 6 15 9 5 9 -8 0 -22 -4 -30 -9z"/>
<path d="M7349 2158 c-6 -22 -5 -39 3 -45 6 -3 8 -1 4 5 -3 6 3 14 15 17 17 6
19 9 8 16 -14 8 -28 12 -30 7z"/>
<path d="M7376 2122 c-3 -4 4 -9 15 -9 23 -2 25 3 4 10 -8 4 -16 3 -19 -1z"/>
<path d="M1330 2080 c0 -5 5 -10 11 -10 5 0 7 5 4 10 -3 6 -8 10 -11 10 -2 0
-4 -4 -4 -10z"/>
<path d="M1370 2061 c0 -11 4 -22 9 -25 4 -3 6 6 3 19 -5 30 -12 33 -12 6z"/>
<path d="M7305 2060 c-3 -6 1 -7 9 -4 18 7 21 14 7 14 -6 0 -13 -4 -16 -10z"/>
<path d="M7359 2053 c-13 -16 -12 -17 4 -4 16 13 21 21 13 21 -2 0 -10 -8 -17
-17z"/>
<path d="M1397 2049 c7 -7 15 -10 18 -7 3 3 -2 9 -12 12 -14 6 -15 5 -6 -5z"/>
<path d="M1410 2019 c0 -5 5 -7 10 -4 6 3 10 8 10 11 0 2 -4 4 -10 4 -5 0 -10
-5 -10 -11z"/>
<path d="M1440 2015 c-7 -9 -10 -18 -6 -22 3 -3 6 -1 6 6 0 7 4 10 8 7 5 -3 9
1 9 9 0 19 -2 19 -17 0z"/>
<path d="M7194 1946 c0 -13 4 -22 8 -20 9 6 6 44 -3 44 -4 0 -6 -11 -5 -24z"/>
<path d="M1530 1899 c0 -5 5 -7 10 -4 6 3 10 8 10 11 0 2 -4 4 -10 4 -5 0 -10
-5 -10 -11z"/>
<path d="M7113 1890 c-1 -11 2 -20 5 -20 4 0 8 9 9 20 1 11 -2 20 -5 20 -4 0
-8 -9 -9 -20z"/>
<path d="M1596 1871 l-20 -26 25 20 c13 11 25 21 27 21 2 1 0 4 -5 7 -4 3 -17
-7 -27 -22z"/>
<path d="M1555 1880 c3 -5 8 -10 11 -10 2 0 4 5 4 10 0 6 -5 10 -11 10 -5 0
-7 -4 -4 -10z"/>
<path d="M1630 1870 c-8 -5 -11 -12 -7 -17 5 -4 12 -1 16 6 7 11 10 9 15 -7 7
-21 36 -39 36 -21 0 6 5 7 12 3 8 -5 4 -13 -11 -26 -13 -10 -19 -18 -13 -18 6
0 17 7 26 15 8 9 17 11 21 6 3 -5 -5 -17 -17 -25 -12 -9 -17 -16 -11 -16 6 0
16 7 23 15 15 19 31 10 23 -13 -7 -18 -5 -17 17 12 8 11 10 17 4 13 -14 -8
-37 16 -26 28 4 5 2 5 -4 2 -7 -4 -18 0 -25 9 -21 25 -64 43 -79 34z m55 -28
c-3 -3 -11 0 -18 7 -9 10 -8 11 6 5 10 -3 15 -9 12 -12z"/>
<path d="M7025 1860 c-8 -13 9 -20 24 -11 10 6 9 10 -3 14 -8 3 -18 2 -21 -3z"/>
<path d="M1635 1820 c3 -5 8 -10 11 -10 2 0 4 5 4 10 0 6 -5 10 -11 10 -5 0
-7 -4 -4 -10z"/>
<path d="M7001 1793 c-1 -17 16 -25 25 -12 4 7 3 9 -4 5 -5 -3 -13 0 -15 6 -4
9 -6 10 -6 1z"/>
<path d="M6900 1762 c-19 -18 -20 -21 -5 -16 14 6 16 4 10 -6 -5 -9 -4 -11 4
-6 6 4 9 11 6 16 -3 4 0 10 6 12 7 2 10 8 8 14 -2 5 -15 -1 -29 -14z"/>
<path d="M1747 1739 c7 -7 15 -10 18 -7 3 3 -2 9 -12 12 -14 6 -15 5 -6 -5z"/>
<path d="M6851 1724 c-12 -27 -11 -28 4 -12 10 9 16 21 13 28 -2 7 -10 -1 -17
-16z"/>
<path d="M6930 1742 c0 -5 7 -9 15 -9 8 0 12 4 9 9 -3 4 -9 8 -15 8 -5 0 -9
-4 -9 -8z"/>
<path d="M6880 1726 c0 -2 8 -10 18 -17 15 -13 16 -12 3 4 -13 16 -21 21 -21
13z"/>
<path d="M1789 1703 c-13 -16 -12 -17 4 -4 16 13 21 21 13 21 -2 0 -10 -8 -17
-17z"/>
<path d="M1848 1702 c-7 -10 -8 -14 -4 -10 5 4 15 3 21 -2 9 -7 16 -6 25 5 7
8 11 15 9 16 -31 6 -40 5 -51 -9z m42 2 c0 -8 -19 -13 -24 -6 -3 5 1 9 9 9 8
0 15 -2 15 -3z"/>
<path d="M1815 1700 c-3 -5 -1 -10 4 -10 6 0 11 5 11 10 0 6 -2 10 -4 10 -3 0
-8 -4 -11 -10z"/>
<path d="M6866 1702 c-3 -5 1 -9 9 -9 8 0 12 4 9 9 -3 4 -7 8 -9 8 -2 0 -6 -4
-9 -8z"/>
<path d="M6835 1680 c-3 -5 -1 -10 4 -10 6 0 11 5 11 10 0 6 -2 10 -4 10 -3 0
-8 -4 -11 -10z"/>
<path d="M6873 1667 c0 -8 6 -14 14 -14 9 0 10 4 2 14 -6 7 -12 13 -14 13 -1
0 -2 -6 -2 -13z"/>
<path d="M1854 1662 c4 -3 14 -7 22 -8 9 -1 13 0 10 4 -4 3 -14 7 -22 8 -9 1
-13 0 -10 -4z"/>
<path d="M6685 1634 l-30 -25 28 5 c21 4 27 1 24 -8 -5 -14 27 -15 40 -2 5 4
4 7 -2 6 -21 -5 -29 1 -15 10 11 7 11 10 2 10 -7 0 -11 4 -7 9 12 21 -12 18
-40 -5z m32 3 c0 -8 -6 -14 -14 -14 -9 0 -10 4 -2 14 6 7 12 13 14 13 1 0 2
-6 2 -13z"/>
<path d="M6775 1641 c-3 -5 -2 -12 3 -15 5 -3 9 1 9 9 0 17 -3 19 -12 6z"/>
<path d="M1942 1624 c10 -10 20 -16 22 -13 3 3 -5 11 -17 18 -21 13 -21 12 -5
-5z"/>
<path d="M2003 1622 c-3 -12 -9 -20 -13 -17 -5 3 -11 2 -14 -3 -2 -4 6 -8 18
-8 18 0 22 5 19 21 -4 20 -4 20 11 1 9 -11 18 -17 21 -14 3 2 -4 13 -15 23
-20 18 -21 18 -27 -3z"/>
<path d="M2034 1576 c1 -8 5 -18 8 -22 4 -3 5 1 4 10 -1 8 -5 18 -8 22 -4 3
-5 -1 -4 -10z"/>
<path d="M6575 1540 c3 -5 8 -10 11 -10 2 0 4 5 4 10 0 6 -5 10 -11 10 -5 0
-7 -4 -4 -10z"/>
<path d="M6615 1539 c-4 -6 -5 -12 -2 -15 2 -3 7 2 10 11 7 17 1 20 -8 4z"/>
<path d="M2120 1500 c-8 -5 -10 -10 -5 -10 6 0 17 5 25 10 8 5 11 10 5 10 -5
0 -17 -5 -25 -10z"/>
<path d="M6460 1496 c0 -3 9 -10 20 -16 11 -6 20 -8 20 -6 0 3 -9 10 -20 16
-11 6 -20 8 -20 6z"/>
<path d="M6535 1491 c-3 -5 -2 -12 3 -15 5 -3 9 1 9 9 0 17 -3 19 -12 6z"/>
<path d="M6375 1470 c-2 -3 5 -6 15 -7 11 -1 22 2 24 5 3 4 -4 8 -15 8 -11 0
-22 -3 -24 -6z"/>
<path d="M6430 1461 c0 -6 4 -13 10 -16 6 -3 7 1 4 9 -7 18 -14 21 -14 7z"/>
<path d="M2328 1438 c8 -9 11 -22 7 -28 -4 -7 2 -6 14 2 14 8 17 14 9 17 -7 2
-20 9 -28 15 -13 9 -13 9 -2 -6z"/>
<path d="M2414 1421 c0 -9 9 -18 19 -18 12 -1 17 4 15 14 -4 22 -34 25 -34 4z"/>
<path d="M6427 1419 c7 -7 15 -10 18 -7 3 3 -2 9 -12 12 -14 6 -15 5 -6 -5z"/>
<path d="M2355 1400 c-3 -6 1 -7 9 -4 18 7 21 14 7 14 -6 0 -13 -4 -16 -10z"/>
<path d="M2456 1394 c-3 -7 3 -10 15 -7 11 3 19 0 19 -6 0 -7 5 -9 10 -6 6 3
10 1 10 -4 0 -6 4 -11 9 -11 5 0 8 8 6 18 -1 10 -9 16 -20 14 -9 -2 -15 0 -12
5 3 5 -3 9 -13 9 -11 0 -22 -6 -24 -12z"/>
<path d="M6316 1402 c-3 -5 1 -9 9 -9 8 0 12 4 9 9 -3 4 -7 8 -9 8 -2 0 -6 -4
-9 -8z"/>
<path d="M2414 1358 c-3 -4 5 -5 17 -3 30 6 36 14 9 12 -12 -1 -24 -5 -26 -9z"/>
<path d="M6256 1347 c3 -10 9 -15 12 -12 3 3 0 11 -7 18 -10 9 -11 8 -5 -6z"/>
<path d="M2610 1343 c0 -12 46 -34 53 -26 3 3 3 12 0 20 -5 11 -8 12 -14 2 -6
-10 -11 -10 -23 0 -9 8 -16 9 -16 4z"/>
<path d="M6170 1342 c0 -5 7 -9 15 -9 8 0 12 4 9 9 -3 4 -9 8 -15 8 -5 0 -9
-4 -9 -8z"/>
<path d="M6108 1308 c-10 -10 -14 -18 -9 -18 10 0 36 29 30 34 -2 1 -12 -6
-21 -16z"/>
<path d="M6005 1309 c-4 -6 -2 -16 4 -22 9 -9 10 -7 5 7 -6 15 -4 17 7 10 16
-10 56 -17 47 -8 -3 3 -12 6 -20 8 -7 1 -18 5 -25 9 -6 4 -15 2 -18 -4z"/>
<path d="M6176 1307 c3 -10 9 -15 12 -12 3 3 0 11 -7 18 -10 9 -11 8 -5 -6z"/>
<path d="M5957 1304 c-3 -5 1 -14 8 -21 10 -10 15 -9 19 4 4 9 4 18 1 21 -3 3
-5 -1 -5 -9 0 -12 -2 -12 -9 0 -5 7 -11 9 -14 5z"/>
<path d="M2635 1291 c-3 -5 -2 -12 3 -15 5 -3 9 1 9 9 0 17 -3 19 -12 6z"/>
<path d="M2755 1270 c3 -5 8 -10 11 -10 2 0 4 5 4 10 0 6 -5 10 -11 10 -5 0
-7 -4 -4 -10z"/>
<path d="M2832 1255 c1 -14 6 -25 11 -25 5 0 5 10 1 22 -6 20 -5 21 9 9 9 -7
14 -18 10 -25 -4 -6 1 -5 10 3 21 17 22 35 2 28 -8 -4 -17 -2 -20 3 -12 19
-25 10 -23 -15z"/>
<path d="M5986 1263 c-6 -14 -5 -15 5 -6 7 7 10 15 7 18 -3 3 -9 -2 -12 -12z"/>
<path d="M6010 1259 c0 -5 5 -7 10 -4 6 3 10 8 10 11 0 2 -4 4 -10 4 -5 0 -10
-5 -10 -11z"/>
<path d="M3057 1215 c-4 -9 -11 -14 -16 -10 -5 3 -13 0 -17 -7 -4 -7 -3 -10 1
-5 5 4 18 -1 29 -10 17 -15 19 -15 8 -1 -8 10 -9 19 -3 22 5 3 11 0 14 -6 3
-10 8 -10 18 1 8 8 9 11 2 7 -6 -3 -16 1 -21 10 -8 15 -10 15 -15 -1z"/>
<path d="M5870 1222 c0 -5 7 -9 15 -9 8 0 12 4 9 9 -3 4 -9 8 -15 8 -5 0 -9
-4 -9 -8z"/>
<path d="M3170 1178 c0 -4 5 -8 11 -8 5 0 7 -4 4 -10 -3 -6 1 -7 10 -3 12 4
13 8 5 13 -9 6 -9 9 1 13 8 3 4 4 -8 4 -13 -1 -23 -5 -23 -9z"/>
<path d="M3033 1165 c0 -8 4 -12 9 -9 5 3 6 10 3 15 -9 13 -12 11 -12 -6z"/>
<path d="M5700 1166 c0 -2 7 -6 15 -10 8 -3 15 -1 15 4 0 6 -7 10 -15 10 -8 0
-15 -2 -15 -4z"/>
<path d="M3113 1146 c0 -15 22 -15 34 0 4 5 4 6 -1 2 -5 -4 -14 -3 -21 2 -8 7
-12 5 -12 -4z"/>
<path d="M3445 1151 c-3 -6 -8 -20 -10 -30 -3 -14 1 -18 12 -14 12 5 12 8 1
15 -9 7 -6 8 10 5 20 -5 22 -3 10 11 -7 9 -13 18 -14 20 -1 2 -5 -1 -9 -7z"/>
<path d="M5430 1141 c0 -5 5 -13 10 -16 6 -3 10 -2 10 4 0 5 -4 13 -10 16 -5
3 -10 2 -10 -4z"/>
<path d="M5540 1142 c0 -5 7 -9 15 -9 8 0 12 4 9 9 -3 4 -9 8 -15 8 -5 0 -9
-4 -9 -8z"/>
<path d="M5593 1135 c0 -8 4 -12 9 -9 5 3 6 10 3 15 -9 13 -12 11 -12 -6z"/>
<path d="M5251 1104 c11 -14 61 -25 53 -13 -3 5 -12 9 -20 9 -8 0 -13 4 -10 8
2 4 -4 8 -14 8 -13 0 -16 -4 -9 -12z"/>
<path d="M3593 1090 c2 -25 47 -13 47 13 0 6 -7 2 -16 -9 -11 -13 -14 -14 -11
-3 3 9 -1 16 -8 16 -8 0 -13 -8 -12 -17z"/>
<path d="M5556 1102 c-3 -5 1 -9 9 -9 8 0 12 4 9 9 -3 4 -7 8 -9 8 -2 0 -6 -4
-9 -8z"/>
<path d="M3539 1088 c-5 -18 -6 -38 -1 -34 7 8 12 36 6 36 -2 0 -4 -1 -5 -2z"/>
<path d="M5079 1073 c-8 -9 -9 -14 -2 -10 6 4 13 1 16 -5 3 -7 4 -3 4 10 -1
26 -1 26 -18 5z"/>
<path d="M5230 1080 c0 -5 5 -10 10 -10 6 0 10 5 10 10 0 6 -4 10 -10 10 -5 0
-10 -4 -10 -10z"/>
<path d="M5340 1080 c-9 -6 -10 -10 -3 -10 6 0 15 5 18 10 8 12 4 12 -15 0z"/>
<path d="M3877 1064 c3 -8 10 -13 15 -12 16 6 14 21 -4 24 -11 1 -15 -3 -11
-12z"/>
<path d="M5175 1061 c-3 -5 0 -13 6 -17 8 -5 9 -3 4 6 -6 10 -4 12 9 7 10 -4
15 -3 11 3 -8 13 -22 13 -30 1z"/>
<path d="M3816 1041 c-3 -5 2 -15 12 -22 15 -12 16 -12 5 2 -7 9 -10 19 -6 22
3 4 4 7 0 7 -3 0 -8 -4 -11 -9z"/>
<path d="M3910 1041 c0 -6 4 -13 10 -16 6 -3 7 1 4 9 -7 18 -14 21 -14 7z"/>
<path d="M4310 1039 c0 -5 5 -7 10 -4 6 3 10 8 10 11 0 2 -4 4 -10 4 -5 0 -10
-5 -10 -11z"/>
<path d="M4992 1041 c-11 -7 -11 -9 0 -14 9 -3 15 1 15 9 0 8 -1 14 -1 14 -1
0 -7 -4 -14 -9z"/>
<path d="M4361 1024 c0 -11 3 -14 6 -6 3 7 2 16 -1 19 -3 4 -6 -2 -5 -13z"/>
<path d="M4955 1030 c-4 -6 -11 -7 -17 -4 -7 4 -8 2 -4 -5 6 -9 11 -9 22 0 14
11 18 19 10 19 -3 0 -8 -5 -11 -10z"/>
<path d="M3970 1022 c0 -5 7 -9 15 -9 8 0 12 4 9 9 -3 4 -9 8 -15 8 -5 0 -9
-4 -9 -8z"/>
<path d="M4100 1019 c0 -5 5 -7 10 -4 6 3 10 8 10 11 0 2 -4 4 -10 4 -5 0 -10
-5 -10 -11z"/>
<path d="M4132 1026 c2 -1 12 -8 22 -16 11 -8 17 -10 13 -3 -4 6 -1 13 5 16 7
2 0 4 -15 4 -15 0 -27 0 -25 -1z"/>
<path d="M4779 1028 c-6 -21 -5 -37 2 -32 5 3 7 9 4 14 -3 4 1 11 7 13 10 4
10 6 1 6 -7 1 -13 0 -14 -1z"/>
<path d="M4810 1026 c0 -2 7 -7 16 -10 8 -3 12 -2 9 4 -6 10 -25 14 -25 6z"/>
<path d="M4310 1011 c0 -9 30 -24 36 -18 2 1 -6 8 -16 15 -11 7 -20 8 -20 3z"/>
<path d="M4475 1000 c6 -30 16 -40 12 -12 -2 12 -6 24 -10 28 -3 4 -4 -4 -2
-16z"/>
<path d="M4380 1000 c-9 -6 -10 -10 -3 -10 6 0 15 5 18 10 8 12 4 12 -15 0z"/>
<path d="M4440 1000 c-9 -6 -10 -10 -3 -10 6 0 15 5 18 10 8 12 4 12 -15 0z"/>
<path d="M4845 1000 c-3 -6 1 -7 9 -4 18 7 21 14 7 14 -6 0 -13 -4 -16 -10z"/>
</g>
</svg>
